%TF.GenerationSoftware,KiCad,Pcbnew,6.0.0-d3dd2cf0fa~116~ubuntu20.04.1*%
%TF.CreationDate,2022-12-05T21:17:03-06:00*%
%TF.ProjectId,esp32-led-driver-2,65737033-322d-46c6-9564-2d6472697665,rev?*%
%TF.SameCoordinates,Original*%
%TF.FileFunction,Legend,Top*%
%TF.FilePolarity,Positive*%
%FSLAX46Y46*%
G04 Gerber Fmt 4.6, Leading zero omitted, Abs format (unit mm)*
G04 Created by KiCad (PCBNEW 6.0.0-d3dd2cf0fa~116~ubuntu20.04.1) date 2022-12-05 21:17:03*
%MOMM*%
%LPD*%
G01*
G04 APERTURE LIST*
%ADD10C,0.150000*%
%ADD11C,0.127000*%
%ADD12C,0.100000*%
G04 APERTURE END LIST*
D10*
X73250000Y-153702380D02*
X73250000Y-152702380D01*
X73916666Y-152702380D02*
X74107142Y-152702380D01*
X74202380Y-152750000D01*
X74297619Y-152845238D01*
X74345238Y-153035714D01*
X74345238Y-153369047D01*
X74297619Y-153559523D01*
X74202380Y-153654761D01*
X74107142Y-153702380D01*
X73916666Y-153702380D01*
X73821428Y-153654761D01*
X73726190Y-153559523D01*
X73678571Y-153369047D01*
X73678571Y-153035714D01*
X73726190Y-152845238D01*
X73821428Y-152750000D01*
X73916666Y-152702380D01*
X74726190Y-152797619D02*
X74773809Y-152750000D01*
X74869047Y-152702380D01*
X75107142Y-152702380D01*
X75202380Y-152750000D01*
X75250000Y-152797619D01*
X75297619Y-152892857D01*
X75297619Y-152988095D01*
X75250000Y-153130952D01*
X74678571Y-153702380D01*
X75297619Y-153702380D01*
X68750000Y-153702380D02*
X68750000Y-152702380D01*
X69416666Y-152702380D02*
X69607142Y-152702380D01*
X69702380Y-152750000D01*
X69797619Y-152845238D01*
X69845238Y-153035714D01*
X69845238Y-153369047D01*
X69797619Y-153559523D01*
X69702380Y-153654761D01*
X69607142Y-153702380D01*
X69416666Y-153702380D01*
X69321428Y-153654761D01*
X69226190Y-153559523D01*
X69178571Y-153369047D01*
X69178571Y-153035714D01*
X69226190Y-152845238D01*
X69321428Y-152750000D01*
X69416666Y-152702380D01*
X70702380Y-153035714D02*
X70702380Y-153702380D01*
X70464285Y-152654761D02*
X70226190Y-153369047D01*
X70845238Y-153369047D01*
X63273809Y-153702380D02*
X63273809Y-152702380D01*
X63940476Y-152702380D02*
X64130952Y-152702380D01*
X64226190Y-152750000D01*
X64321428Y-152845238D01*
X64369047Y-153035714D01*
X64369047Y-153369047D01*
X64321428Y-153559523D01*
X64226190Y-153654761D01*
X64130952Y-153702380D01*
X63940476Y-153702380D01*
X63845238Y-153654761D01*
X63750000Y-153559523D01*
X63702380Y-153369047D01*
X63702380Y-153035714D01*
X63750000Y-152845238D01*
X63845238Y-152750000D01*
X63940476Y-152702380D01*
X65321428Y-153702380D02*
X64750000Y-153702380D01*
X65035714Y-153702380D02*
X65035714Y-152702380D01*
X64940476Y-152845238D01*
X64845238Y-152940476D01*
X64750000Y-152988095D01*
X66226190Y-152702380D02*
X65750000Y-152702380D01*
X65702380Y-153178571D01*
X65750000Y-153130952D01*
X65845238Y-153083333D01*
X66083333Y-153083333D01*
X66178571Y-153130952D01*
X66226190Y-153178571D01*
X66273809Y-153273809D01*
X66273809Y-153511904D01*
X66226190Y-153607142D01*
X66178571Y-153654761D01*
X66083333Y-153702380D01*
X65845238Y-153702380D01*
X65750000Y-153654761D01*
X65702380Y-153607142D01*
X58023809Y-153702380D02*
X58023809Y-152702380D01*
X58690476Y-152702380D02*
X58880952Y-152702380D01*
X58976190Y-152750000D01*
X59071428Y-152845238D01*
X59119047Y-153035714D01*
X59119047Y-153369047D01*
X59071428Y-153559523D01*
X58976190Y-153654761D01*
X58880952Y-153702380D01*
X58690476Y-153702380D01*
X58595238Y-153654761D01*
X58500000Y-153559523D01*
X58452380Y-153369047D01*
X58452380Y-153035714D01*
X58500000Y-152845238D01*
X58595238Y-152750000D01*
X58690476Y-152702380D01*
X60071428Y-153702380D02*
X59500000Y-153702380D01*
X59785714Y-153702380D02*
X59785714Y-152702380D01*
X59690476Y-152845238D01*
X59595238Y-152940476D01*
X59500000Y-152988095D01*
X60928571Y-152702380D02*
X60738095Y-152702380D01*
X60642857Y-152750000D01*
X60595238Y-152797619D01*
X60500000Y-152940476D01*
X60452380Y-153130952D01*
X60452380Y-153511904D01*
X60500000Y-153607142D01*
X60547619Y-153654761D01*
X60642857Y-153702380D01*
X60833333Y-153702380D01*
X60928571Y-153654761D01*
X60976190Y-153607142D01*
X61023809Y-153511904D01*
X61023809Y-153273809D01*
X60976190Y-153178571D01*
X60928571Y-153130952D01*
X60833333Y-153083333D01*
X60642857Y-153083333D01*
X60547619Y-153130952D01*
X60500000Y-153178571D01*
X60452380Y-153273809D01*
X76738095Y-146100000D02*
X76642857Y-146052380D01*
X76500000Y-146052380D01*
X76357142Y-146100000D01*
X76261904Y-146195238D01*
X76214285Y-146290476D01*
X76166666Y-146480952D01*
X76166666Y-146623809D01*
X76214285Y-146814285D01*
X76261904Y-146909523D01*
X76357142Y-147004761D01*
X76500000Y-147052380D01*
X76595238Y-147052380D01*
X76738095Y-147004761D01*
X76785714Y-146957142D01*
X76785714Y-146623809D01*
X76595238Y-146623809D01*
X77214285Y-147052380D02*
X77214285Y-146052380D01*
X77785714Y-147052380D01*
X77785714Y-146052380D01*
X78261904Y-147052380D02*
X78261904Y-146052380D01*
X78500000Y-146052380D01*
X78642857Y-146100000D01*
X78738095Y-146195238D01*
X78785714Y-146290476D01*
X78833333Y-146480952D01*
X78833333Y-146623809D01*
X78785714Y-146814285D01*
X78738095Y-146909523D01*
X78642857Y-147004761D01*
X78500000Y-147052380D01*
X78261904Y-147052380D01*
X76166666Y-150252380D02*
X76500000Y-151252380D01*
X76833333Y-150252380D01*
X77738095Y-151157142D02*
X77690476Y-151204761D01*
X77547619Y-151252380D01*
X77452380Y-151252380D01*
X77309523Y-151204761D01*
X77214285Y-151109523D01*
X77166666Y-151014285D01*
X77119047Y-150823809D01*
X77119047Y-150680952D01*
X77166666Y-150490476D01*
X77214285Y-150395238D01*
X77309523Y-150300000D01*
X77452380Y-150252380D01*
X77547619Y-150252380D01*
X77690476Y-150300000D01*
X77738095Y-150347619D01*
X78738095Y-151157142D02*
X78690476Y-151204761D01*
X78547619Y-151252380D01*
X78452380Y-151252380D01*
X78309523Y-151204761D01*
X78214285Y-151109523D01*
X78166666Y-151014285D01*
X78119047Y-150823809D01*
X78119047Y-150680952D01*
X78166666Y-150490476D01*
X78214285Y-150395238D01*
X78309523Y-150300000D01*
X78452380Y-150252380D01*
X78547619Y-150252380D01*
X78690476Y-150300000D01*
X78738095Y-150347619D01*
X50538095Y-143174000D02*
X50442857Y-143126380D01*
X50300000Y-143126380D01*
X50157142Y-143174000D01*
X50061904Y-143269238D01*
X50014285Y-143364476D01*
X49966666Y-143554952D01*
X49966666Y-143697809D01*
X50014285Y-143888285D01*
X50061904Y-143983523D01*
X50157142Y-144078761D01*
X50300000Y-144126380D01*
X50395238Y-144126380D01*
X50538095Y-144078761D01*
X50585714Y-144031142D01*
X50585714Y-143697809D01*
X50395238Y-143697809D01*
X51014285Y-144126380D02*
X51014285Y-143126380D01*
X51585714Y-144126380D01*
X51585714Y-143126380D01*
X52061904Y-144126380D02*
X52061904Y-143126380D01*
X52300000Y-143126380D01*
X52442857Y-143174000D01*
X52538095Y-143269238D01*
X52585714Y-143364476D01*
X52633333Y-143554952D01*
X52633333Y-143697809D01*
X52585714Y-143888285D01*
X52538095Y-143983523D01*
X52442857Y-144078761D01*
X52300000Y-144126380D01*
X52061904Y-144126380D01*
X63000095Y-121118380D02*
X63000095Y-121927904D01*
X63047714Y-122023142D01*
X63095333Y-122070761D01*
X63190571Y-122118380D01*
X63381047Y-122118380D01*
X63476285Y-122070761D01*
X63523904Y-122023142D01*
X63571523Y-121927904D01*
X63571523Y-121118380D01*
X64000095Y-122070761D02*
X64142952Y-122118380D01*
X64381047Y-122118380D01*
X64476285Y-122070761D01*
X64523904Y-122023142D01*
X64571523Y-121927904D01*
X64571523Y-121832666D01*
X64523904Y-121737428D01*
X64476285Y-121689809D01*
X64381047Y-121642190D01*
X64190571Y-121594571D01*
X64095333Y-121546952D01*
X64047714Y-121499333D01*
X64000095Y-121404095D01*
X64000095Y-121308857D01*
X64047714Y-121213619D01*
X64095333Y-121166000D01*
X64190571Y-121118380D01*
X64428666Y-121118380D01*
X64571523Y-121166000D01*
X65333428Y-121594571D02*
X65476285Y-121642190D01*
X65523904Y-121689809D01*
X65571523Y-121785047D01*
X65571523Y-121927904D01*
X65523904Y-122023142D01*
X65476285Y-122070761D01*
X65381047Y-122118380D01*
X65000095Y-122118380D01*
X65000095Y-121118380D01*
X65333428Y-121118380D01*
X65428666Y-121166000D01*
X65476285Y-121213619D01*
X65523904Y-121308857D01*
X65523904Y-121404095D01*
X65476285Y-121499333D01*
X65428666Y-121546952D01*
X65333428Y-121594571D01*
X65000095Y-121594571D01*
X47434666Y-118832380D02*
X47768000Y-119832380D01*
X48101333Y-118832380D01*
X49006095Y-119737142D02*
X48958476Y-119784761D01*
X48815619Y-119832380D01*
X48720380Y-119832380D01*
X48577523Y-119784761D01*
X48482285Y-119689523D01*
X48434666Y-119594285D01*
X48387047Y-119403809D01*
X48387047Y-119260952D01*
X48434666Y-119070476D01*
X48482285Y-118975238D01*
X48577523Y-118880000D01*
X48720380Y-118832380D01*
X48815619Y-118832380D01*
X48958476Y-118880000D01*
X49006095Y-118927619D01*
X50006095Y-119737142D02*
X49958476Y-119784761D01*
X49815619Y-119832380D01*
X49720380Y-119832380D01*
X49577523Y-119784761D01*
X49482285Y-119689523D01*
X49434666Y-119594285D01*
X49387047Y-119403809D01*
X49387047Y-119260952D01*
X49434666Y-119070476D01*
X49482285Y-118975238D01*
X49577523Y-118880000D01*
X49720380Y-118832380D01*
X49815619Y-118832380D01*
X49958476Y-118880000D01*
X50006095Y-118927619D01*
X57594666Y-127722380D02*
X57928000Y-128722380D01*
X58261333Y-127722380D01*
X59166095Y-128627142D02*
X59118476Y-128674761D01*
X58975619Y-128722380D01*
X58880380Y-128722380D01*
X58737523Y-128674761D01*
X58642285Y-128579523D01*
X58594666Y-128484285D01*
X58547047Y-128293809D01*
X58547047Y-128150952D01*
X58594666Y-127960476D01*
X58642285Y-127865238D01*
X58737523Y-127770000D01*
X58880380Y-127722380D01*
X58975619Y-127722380D01*
X59118476Y-127770000D01*
X59166095Y-127817619D01*
X60166095Y-128627142D02*
X60118476Y-128674761D01*
X59975619Y-128722380D01*
X59880380Y-128722380D01*
X59737523Y-128674761D01*
X59642285Y-128579523D01*
X59594666Y-128484285D01*
X59547047Y-128293809D01*
X59547047Y-128150952D01*
X59594666Y-127960476D01*
X59642285Y-127865238D01*
X59737523Y-127770000D01*
X59880380Y-127722380D01*
X59975619Y-127722380D01*
X60118476Y-127770000D01*
X60166095Y-127817619D01*
X49966666Y-152778380D02*
X50300000Y-153778380D01*
X50633333Y-152778380D01*
X51538095Y-153683142D02*
X51490476Y-153730761D01*
X51347619Y-153778380D01*
X51252380Y-153778380D01*
X51109523Y-153730761D01*
X51014285Y-153635523D01*
X50966666Y-153540285D01*
X50919047Y-153349809D01*
X50919047Y-153206952D01*
X50966666Y-153016476D01*
X51014285Y-152921238D01*
X51109523Y-152826000D01*
X51252380Y-152778380D01*
X51347619Y-152778380D01*
X51490476Y-152826000D01*
X51538095Y-152873619D01*
X52538095Y-153683142D02*
X52490476Y-153730761D01*
X52347619Y-153778380D01*
X52252380Y-153778380D01*
X52109523Y-153730761D01*
X52014285Y-153635523D01*
X51966666Y-153540285D01*
X51919047Y-153349809D01*
X51919047Y-153206952D01*
X51966666Y-153016476D01*
X52014285Y-152921238D01*
X52109523Y-152826000D01*
X52252380Y-152778380D01*
X52347619Y-152778380D01*
X52490476Y-152826000D01*
X52538095Y-152873619D01*
%TO.C,ESP32 Dev Board*%
X57116584Y-67178543D02*
X57450046Y-67178543D01*
X57592958Y-67702555D02*
X57116584Y-67702555D01*
X57116584Y-66702169D01*
X57592958Y-66702169D01*
X57974058Y-67654918D02*
X58116970Y-67702555D01*
X58355157Y-67702555D01*
X58450432Y-67654918D01*
X58498070Y-67607280D01*
X58545707Y-67512005D01*
X58545707Y-67416731D01*
X58498070Y-67321456D01*
X58450432Y-67273818D01*
X58355157Y-67226181D01*
X58164608Y-67178543D01*
X58069333Y-67130906D01*
X58021695Y-67083269D01*
X57974058Y-66987994D01*
X57974058Y-66892719D01*
X58021695Y-66797444D01*
X58069333Y-66749807D01*
X58164608Y-66702169D01*
X58402795Y-66702169D01*
X58545707Y-66749807D01*
X58974444Y-67702555D02*
X58974444Y-66702169D01*
X59355543Y-66702169D01*
X59450818Y-66749807D01*
X59498456Y-66797444D01*
X59546093Y-66892719D01*
X59546093Y-67035631D01*
X59498456Y-67130906D01*
X59450818Y-67178543D01*
X59355543Y-67226181D01*
X58974444Y-67226181D01*
X59879555Y-66702169D02*
X60498842Y-66702169D01*
X60165380Y-67083269D01*
X60308292Y-67083269D01*
X60403567Y-67130906D01*
X60451204Y-67178543D01*
X60498842Y-67273818D01*
X60498842Y-67512005D01*
X60451204Y-67607280D01*
X60403567Y-67654918D01*
X60308292Y-67702555D01*
X60022467Y-67702555D01*
X59927192Y-67654918D01*
X59879555Y-67607280D01*
X60879941Y-66797444D02*
X60927578Y-66749807D01*
X61022853Y-66702169D01*
X61261040Y-66702169D01*
X61356315Y-66749807D01*
X61403953Y-66797444D01*
X61451590Y-66892719D01*
X61451590Y-66987994D01*
X61403953Y-67130906D01*
X60832304Y-67702555D01*
X61451590Y-67702555D01*
X62642526Y-67702555D02*
X62642526Y-66702169D01*
X62880713Y-66702169D01*
X63023625Y-66749807D01*
X63118900Y-66845081D01*
X63166538Y-66940356D01*
X63214175Y-67130906D01*
X63214175Y-67273818D01*
X63166538Y-67464368D01*
X63118900Y-67559643D01*
X63023625Y-67654918D01*
X62880713Y-67702555D01*
X62642526Y-67702555D01*
X64024011Y-67654918D02*
X63928736Y-67702555D01*
X63738187Y-67702555D01*
X63642912Y-67654918D01*
X63595274Y-67559643D01*
X63595274Y-67178543D01*
X63642912Y-67083269D01*
X63738187Y-67035631D01*
X63928736Y-67035631D01*
X64024011Y-67083269D01*
X64071649Y-67178543D01*
X64071649Y-67273818D01*
X63595274Y-67369093D01*
X64405111Y-67035631D02*
X64643298Y-67702555D01*
X64881485Y-67035631D01*
X66358245Y-67178543D02*
X66501158Y-67226181D01*
X66548795Y-67273818D01*
X66596432Y-67369093D01*
X66596432Y-67512005D01*
X66548795Y-67607280D01*
X66501158Y-67654918D01*
X66405883Y-67702555D01*
X66024783Y-67702555D01*
X66024783Y-66702169D01*
X66358245Y-66702169D01*
X66453520Y-66749807D01*
X66501158Y-66797444D01*
X66548795Y-66892719D01*
X66548795Y-66987994D01*
X66501158Y-67083269D01*
X66453520Y-67130906D01*
X66358245Y-67178543D01*
X66024783Y-67178543D01*
X67168082Y-67702555D02*
X67072807Y-67654918D01*
X67025169Y-67607280D01*
X66977532Y-67512005D01*
X66977532Y-67226181D01*
X67025169Y-67130906D01*
X67072807Y-67083269D01*
X67168082Y-67035631D01*
X67310994Y-67035631D01*
X67406269Y-67083269D01*
X67453906Y-67130906D01*
X67501544Y-67226181D01*
X67501544Y-67512005D01*
X67453906Y-67607280D01*
X67406269Y-67654918D01*
X67310994Y-67702555D01*
X67168082Y-67702555D01*
X68359017Y-67702555D02*
X68359017Y-67178543D01*
X68311380Y-67083269D01*
X68216105Y-67035631D01*
X68025555Y-67035631D01*
X67930280Y-67083269D01*
X68359017Y-67654918D02*
X68263742Y-67702555D01*
X68025555Y-67702555D01*
X67930280Y-67654918D01*
X67882643Y-67559643D01*
X67882643Y-67464368D01*
X67930280Y-67369093D01*
X68025555Y-67321456D01*
X68263742Y-67321456D01*
X68359017Y-67273818D01*
X68835392Y-67702555D02*
X68835392Y-67035631D01*
X68835392Y-67226181D02*
X68883029Y-67130906D01*
X68930666Y-67083269D01*
X69025941Y-67035631D01*
X69121216Y-67035631D01*
X69883415Y-67702555D02*
X69883415Y-66702169D01*
X69883415Y-67654918D02*
X69788140Y-67702555D01*
X69597590Y-67702555D01*
X69502316Y-67654918D01*
X69454678Y-67607280D01*
X69407041Y-67512005D01*
X69407041Y-67226181D01*
X69454678Y-67130906D01*
X69502316Y-67083269D01*
X69597590Y-67035631D01*
X69788140Y-67035631D01*
X69883415Y-67083269D01*
%TO.C,U2*%
X54802380Y-131031904D02*
X55611904Y-131031904D01*
X55707142Y-130984285D01*
X55754761Y-130936666D01*
X55802380Y-130841428D01*
X55802380Y-130650952D01*
X55754761Y-130555714D01*
X55707142Y-130508095D01*
X55611904Y-130460476D01*
X54802380Y-130460476D01*
X54897619Y-130031904D02*
X54850000Y-129984285D01*
X54802380Y-129889047D01*
X54802380Y-129650952D01*
X54850000Y-129555714D01*
X54897619Y-129508095D01*
X54992857Y-129460476D01*
X55088095Y-129460476D01*
X55230952Y-129508095D01*
X55802380Y-130079523D01*
X55802380Y-129460476D01*
%TO.C,POWER*%
X50547619Y-146140476D02*
X51547619Y-146140476D01*
X51547619Y-146521428D01*
X51500000Y-146616666D01*
X51452380Y-146664285D01*
X51357142Y-146711904D01*
X51214285Y-146711904D01*
X51119047Y-146664285D01*
X51071428Y-146616666D01*
X51023809Y-146521428D01*
X51023809Y-146140476D01*
X51547619Y-147330952D02*
X51547619Y-147521428D01*
X51500000Y-147616666D01*
X51404761Y-147711904D01*
X51214285Y-147759523D01*
X50880952Y-147759523D01*
X50690476Y-147711904D01*
X50595238Y-147616666D01*
X50547619Y-147521428D01*
X50547619Y-147330952D01*
X50595238Y-147235714D01*
X50690476Y-147140476D01*
X50880952Y-147092857D01*
X51214285Y-147092857D01*
X51404761Y-147140476D01*
X51500000Y-147235714D01*
X51547619Y-147330952D01*
X51547619Y-148092857D02*
X50547619Y-148330952D01*
X51261904Y-148521428D01*
X50547619Y-148711904D01*
X51547619Y-148950000D01*
X51071428Y-149330952D02*
X51071428Y-149664285D01*
X50547619Y-149807142D02*
X50547619Y-149330952D01*
X51547619Y-149330952D01*
X51547619Y-149807142D01*
X50547619Y-150807142D02*
X51023809Y-150473809D01*
X50547619Y-150235714D02*
X51547619Y-150235714D01*
X51547619Y-150616666D01*
X51500000Y-150711904D01*
X51452380Y-150759523D01*
X51357142Y-150807142D01*
X51214285Y-150807142D01*
X51119047Y-150759523D01*
X51071428Y-150711904D01*
X51023809Y-150616666D01*
X51023809Y-150235714D01*
D11*
%TO.C,ESP32 Dev Board*%
X50566000Y-120595000D02*
X50566000Y-66195000D01*
X78466000Y-120595000D02*
X50566000Y-120595000D01*
X50566000Y-66195000D02*
X78466000Y-66195000D01*
X78466000Y-66195000D02*
X78466000Y-120595000D01*
D12*
%TO.C,U2*%
X57350000Y-134290000D02*
X57350000Y-134540000D01*
X57350000Y-133910000D02*
X57350000Y-134280000D01*
X56350000Y-132610000D02*
X56350000Y-132910000D01*
X56350000Y-132910000D02*
X57350000Y-133910000D01*
X56850000Y-127010000D02*
X56450000Y-127010000D01*
X56450000Y-127010000D02*
X56450000Y-127410000D01*
X75950000Y-127510000D02*
X75950000Y-127010000D01*
X75950000Y-127010000D02*
X75550000Y-127010000D01*
X75550000Y-133810000D02*
X75950000Y-133810000D01*
X75950000Y-133810000D02*
X75950000Y-133410000D01*
%TD*%
M02*
