M48
; DRILL file {KiCad 6.0.0-d3dd2cf0fa~116~ubuntu20.04.1} date Mon 05 Dec 2022 09:25:24 PM CST
; FORMAT={-:-/ absolute / inch / decimal}
; #@! TF.CreationDate,2022-12-05T21:25:24-06:00
; #@! TF.GenerationSoftware,Kicad,Pcbnew,6.0.0-d3dd2cf0fa~116~ubuntu20.04.1
; #@! TF.FileFunction,Plated,1,2,PTH
FMAT,2
INCH
; #@! TA.AperFunction,Plated,PTH,ViaDrill
T1C0.0157
; #@! TA.AperFunction,Plated,PTH,ComponentDrill
T2C0.0394
; #@! TA.AperFunction,Plated,PTH,ComponentDrill
T3C0.0409
%
G90
G05
T1
X2.5492Y-5.502
X2.5984Y-5.0591
X2.9035Y-5.0591
X2.9232Y-5.502
T2
X2.3051Y-4.9839
X2.3051Y-5.2839
X2.4051Y-4.9839
X2.4051Y-5.2839
X2.5051Y-4.9839
X2.5051Y-5.2839
X2.6051Y-4.9839
X2.6051Y-5.2839
X2.7051Y-4.9839
X2.7051Y-5.2839
X2.8051Y-4.9839
X2.8051Y-5.2839
X2.9051Y-4.9839
X2.9051Y-5.2839
T3
X2.04Y-2.897
X2.04Y-2.997
X2.04Y-3.097
X2.04Y-3.197
X2.04Y-3.297
X2.04Y-3.397
X2.04Y-3.497
X2.04Y-3.597
X2.04Y-3.697
X2.04Y-3.797
X2.04Y-3.897
X2.04Y-3.997
X2.04Y-4.097
X2.04Y-4.197
X2.04Y-4.297
X2.04Y-4.397
X2.04Y-4.497
X2.04Y-4.597
X2.04Y-4.697
X3.04Y-2.897
X3.04Y-2.997
X3.04Y-3.097
X3.04Y-3.197
X3.04Y-3.297
X3.04Y-3.397
X3.04Y-3.497
X3.04Y-3.597
X3.04Y-3.697
X3.04Y-3.797
X3.04Y-3.897
X3.04Y-3.997
X3.04Y-4.097
X3.04Y-4.197
X3.04Y-4.297
X3.04Y-4.397
X3.04Y-4.497
X3.04Y-4.597
X3.04Y-4.697
T0
M30
