M48
; DRILL file {KiCad 6.0.9-8da3e8f707~117~ubuntu22.04.1} date Tue 27 Dec 2022 10:22:42 PM CST
; FORMAT={-:-/ absolute / inch / decimal}
; #@! TF.CreationDate,2022-12-27T22:22:42-06:00
; #@! TF.GenerationSoftware,Kicad,Pcbnew,6.0.9-8da3e8f707~117~ubuntu22.04.1
; #@! TF.FileFunction,NonPlated,1,2,NPTH
FMAT,2
INCH
; #@! TA.AperFunction,NonPlated,NPTH,ComponentDrill
T1C0.0787
; #@! TA.AperFunction,NonPlated,NPTH,ComponentDrill
T2C0.1260
%
G90
G05
T1
X4.3159Y-1.6053
X4.3159Y-2.5423
X4.3159Y-2.7598
X4.3159Y-3.6969
X5.2333Y-1.6053
X5.2333Y-2.5423
X5.2333Y-2.7598
X5.2333Y-3.6969
X5.4173Y-1.6063
X5.4173Y-2.5433
X5.4173Y-2.7628
X5.4173Y-3.6998
X6.3346Y-1.6063
X6.3346Y-2.5433
X6.3346Y-2.7628
X6.3346Y-3.6998
X6.5226Y-1.6053
X6.5226Y-2.5423
X6.5226Y-2.7628
X6.5226Y-3.6998
X7.44Y-1.6053
X7.44Y-2.5423
X7.44Y-2.7628
X7.44Y-3.6998
T2
X3.2283Y-1.5748
X3.2283Y-3.937
X8.3858Y-1.5669
X8.3858Y-3.9291
T0
M30
