%TF.GenerationSoftware,KiCad,Pcbnew,6.0.9-8da3e8f707~117~ubuntu22.04.1*%
%TF.CreationDate,2022-12-27T22:22:47-06:00*%
%TF.ProjectId,macropad2,6d616372-6f70-4616-9432-2e6b69636164,rev?*%
%TF.SameCoordinates,Original*%
%TF.FileFunction,Soldermask,Top*%
%TF.FilePolarity,Negative*%
%FSLAX46Y46*%
G04 Gerber Fmt 4.6, Leading zero omitted, Abs format (unit mm)*
G04 Created by KiCad (PCBNEW 6.0.9-8da3e8f707~117~ubuntu22.04.1) date 2022-12-27 22:22:47*
%MOMM*%
%LPD*%
G01*
G04 APERTURE LIST*
%ADD10C,3.200000*%
%ADD11C,2.100000*%
%ADD12C,3.500000*%
%ADD13C,2.000000*%
%ADD14R,1.600000X1.600000*%
%ADD15O,1.600000X1.600000*%
%ADD16C,2.082800*%
%ADD17R,2.000000X2.000000*%
%ADD18R,2.000000X3.200000*%
G04 APERTURE END LIST*
D10*
%TO.C,REF\u002A\u002A*%
X82000000Y-40000000D03*
%TD*%
%TO.C,REF\u002A\u002A*%
X82000000Y-100000000D03*
%TD*%
%TO.C,REF\u002A\u002A*%
X213000000Y-99800000D03*
%TD*%
%TO.C,REF\u002A\u002A*%
X213000000Y-39800000D03*
%TD*%
D11*
%TO.C,OLED5*%
X153060000Y-69675000D03*
X150520000Y-69675000D03*
X147980000Y-69675000D03*
X145440000Y-69675000D03*
D12*
X137600000Y-70175000D03*
X160900000Y-93975000D03*
X137600000Y-93975000D03*
X160900000Y-70175000D03*
%TD*%
D13*
%TO.C,SW5*%
X152425000Y-94550000D03*
X145925000Y-94550000D03*
X145925000Y-90050000D03*
X152425000Y-90050000D03*
%TD*%
D11*
%TO.C,OLED4*%
X125085000Y-69600000D03*
X122545000Y-69600000D03*
X120005000Y-69600000D03*
X117465000Y-69600000D03*
D12*
X109625000Y-70100000D03*
X132925000Y-93900000D03*
X109625000Y-93900000D03*
X132925000Y-70100000D03*
%TD*%
D13*
%TO.C,SW4*%
X124450000Y-94475000D03*
X117950000Y-94475000D03*
X117950000Y-89975000D03*
X124450000Y-89975000D03*
%TD*%
D14*
%TO.C,U3*%
X86725000Y-88200000D03*
D15*
X89265000Y-88200000D03*
X91805000Y-88200000D03*
X94345000Y-88200000D03*
X96885000Y-88200000D03*
X99425000Y-88200000D03*
X101965000Y-88200000D03*
X104505000Y-88200000D03*
X104505000Y-95820000D03*
X101965000Y-95820000D03*
X99425000Y-95820000D03*
X96885000Y-95820000D03*
X94345000Y-95820000D03*
X91805000Y-95820000D03*
X89265000Y-95820000D03*
X86725000Y-95820000D03*
%TD*%
D16*
%TO.C,U2*%
X102000000Y-42600000D03*
X102000000Y-45140000D03*
X102000000Y-47680000D03*
X102000000Y-50220000D03*
X102000000Y-52760000D03*
X102000000Y-55300000D03*
X102000000Y-57840000D03*
X102000000Y-60380000D03*
X102000000Y-62920000D03*
X102000000Y-65460000D03*
X102000000Y-68000000D03*
X102000000Y-70540000D03*
X86760000Y-70540000D03*
X86760000Y-68000000D03*
X86760000Y-65460000D03*
X86760000Y-62920000D03*
X86760000Y-60380000D03*
X86760000Y-57840000D03*
X86760000Y-55300000D03*
X86760000Y-52760000D03*
X86760000Y-50220000D03*
X86760000Y-47680000D03*
X86760000Y-45140000D03*
X86760000Y-42600000D03*
%TD*%
D15*
%TO.C,U1*%
X86725000Y-84020000D03*
X89265000Y-84020000D03*
X91805000Y-84020000D03*
X94345000Y-84020000D03*
X96885000Y-84020000D03*
X99425000Y-84020000D03*
X101965000Y-84020000D03*
X104505000Y-84020000D03*
X104505000Y-76400000D03*
X101965000Y-76400000D03*
X99425000Y-76400000D03*
X96885000Y-76400000D03*
X94345000Y-76400000D03*
X91805000Y-76400000D03*
X89265000Y-76400000D03*
D14*
X86725000Y-76400000D03*
%TD*%
D17*
%TO.C,SW7*%
X202300000Y-79750000D03*
D13*
X197300000Y-79750000D03*
X199800000Y-79750000D03*
D18*
X194200000Y-87250000D03*
X205400000Y-87250000D03*
D13*
X197300000Y-94250000D03*
X202300000Y-94250000D03*
%TD*%
%TO.C,SW6*%
X180500000Y-90050000D03*
X174000000Y-90050000D03*
X174000000Y-94550000D03*
X180500000Y-94550000D03*
%TD*%
%TO.C,SW3*%
X180500000Y-60650000D03*
X174000000Y-60650000D03*
X174000000Y-65150000D03*
X180500000Y-65150000D03*
%TD*%
%TO.C,SW2*%
X152425000Y-60675000D03*
X145925000Y-60675000D03*
X145925000Y-65175000D03*
X152425000Y-65175000D03*
%TD*%
%TO.C,SW1*%
X124450000Y-60650000D03*
X117950000Y-60650000D03*
X117950000Y-65150000D03*
X124450000Y-65150000D03*
%TD*%
D11*
%TO.C,OLED6*%
X181135000Y-69675000D03*
X178595000Y-69675000D03*
X176055000Y-69675000D03*
X173515000Y-69675000D03*
D12*
X165675000Y-70175000D03*
X188975000Y-93975000D03*
X165675000Y-93975000D03*
X188975000Y-70175000D03*
%TD*%
D11*
%TO.C,OLED3*%
X181135000Y-40275000D03*
X178595000Y-40275000D03*
X176055000Y-40275000D03*
X173515000Y-40275000D03*
D12*
X165675000Y-40775000D03*
X188975000Y-64575000D03*
X165675000Y-64575000D03*
X188975000Y-40775000D03*
%TD*%
%TO.C,OLED2*%
X160900000Y-40800000D03*
X137600000Y-64600000D03*
X160900000Y-64600000D03*
X137600000Y-40800000D03*
D11*
X145440000Y-40300000D03*
X147980000Y-40300000D03*
X150520000Y-40300000D03*
X153060000Y-40300000D03*
%TD*%
D12*
%TO.C,OLED1*%
X132925000Y-40775000D03*
X109625000Y-64575000D03*
X132925000Y-64575000D03*
X109625000Y-40775000D03*
D11*
X117465000Y-40275000D03*
X120005000Y-40275000D03*
X122545000Y-40275000D03*
X125085000Y-40275000D03*
%TD*%
M02*
