M48
; DRILL file {KiCad 6.0.9-8da3e8f707~117~ubuntu22.04.1} date Tue 27 Dec 2022 10:22:42 PM CST
; FORMAT={-:-/ absolute / inch / decimal}
; #@! TF.CreationDate,2022-12-27T22:22:42-06:00
; #@! TF.GenerationSoftware,Kicad,Pcbnew,6.0.9-8da3e8f707~117~ubuntu22.04.1
; #@! TF.FileFunction,Plated,1,2,PTH
FMAT,2
INCH
; #@! TA.AperFunction,Plated,PTH,ViaDrill
T1C0.0157
; #@! TA.AperFunction,Plated,PTH,ComponentDrill
T2C0.0315
; #@! TA.AperFunction,Plated,PTH,ComponentDrill
T3C0.0394
; #@! TA.AperFunction,Plated,PTH,ComponentDrill
T4C0.0400
; #@! TA.AperFunction,Plated,PTH,ComponentDrill
T5C0.0433
; #@! TA.AperFunction,Plated,PTH,ComponentDrill
T6C0.0591
%
G90
G05
T1
X3.9134Y-3.6299
X4.1102Y-3.6299
X4.5354Y-1.8504
X4.7874Y-3.6929
X7.6299Y-2.2992
X7.6299Y-2.3465
X7.6299Y-2.3937
T2
X3.4144Y-3.0079
X3.4144Y-3.3079
X3.4144Y-3.4724
X3.4144Y-3.7724
X3.5144Y-3.0079
X3.5144Y-3.3079
X3.5144Y-3.4724
X3.5144Y-3.7724
X3.6144Y-3.0079
X3.6144Y-3.3079
X3.6144Y-3.4724
X3.6144Y-3.7724
X3.7144Y-3.0079
X3.7144Y-3.3079
X3.7144Y-3.4724
X3.7144Y-3.7724
X3.8144Y-3.0079
X3.8144Y-3.3079
X3.8144Y-3.4724
X3.8144Y-3.7724
X3.9144Y-3.0079
X3.9144Y-3.3079
X3.9144Y-3.4724
X3.9144Y-3.7724
X4.0144Y-3.0079
X4.0144Y-3.3079
X4.0144Y-3.4724
X4.0144Y-3.7724
X4.1144Y-3.0079
X4.1144Y-3.3079
X4.1144Y-3.4724
X4.1144Y-3.7724
T3
X7.7677Y-3.1398
X7.7677Y-3.7106
X7.8661Y-3.1398
X7.9646Y-3.1398
X7.9646Y-3.7106
T4
X3.4157Y-1.6772
X3.4157Y-1.7772
X3.4157Y-1.8772
X3.4157Y-1.9772
X3.4157Y-2.0772
X3.4157Y-2.1772
X3.4157Y-2.2772
X3.4157Y-2.3772
X3.4157Y-2.4772
X3.4157Y-2.5772
X3.4157Y-2.6772
X3.4157Y-2.7772
X4.0157Y-1.6772
X4.0157Y-1.7772
X4.0157Y-1.8772
X4.0157Y-1.9772
X4.0157Y-2.0772
X4.0157Y-2.1772
X4.0157Y-2.2772
X4.0157Y-2.3772
X4.0157Y-2.4772
X4.0157Y-2.5772
X4.0157Y-2.6772
X4.0157Y-2.7772
T5
X4.6246Y-1.5856
X4.6246Y-2.7402
X4.6437Y-2.3878
X4.6437Y-2.565
X4.6437Y-3.5423
X4.6437Y-3.7195
X4.7246Y-1.5856
X4.7246Y-2.7402
X4.8246Y-1.5856
X4.8246Y-2.7402
X4.8996Y-2.3878
X4.8996Y-2.565
X4.8996Y-3.5423
X4.8996Y-3.7195
X4.9246Y-1.5856
X4.9246Y-2.7402
X5.726Y-1.5866
X5.726Y-2.7431
X5.7451Y-2.3888
X5.7451Y-2.5659
X5.7451Y-3.5453
X5.7451Y-3.7224
X5.826Y-1.5866
X5.826Y-2.7431
X5.926Y-1.5866
X5.926Y-2.7431
X6.001Y-2.3888
X6.001Y-2.5659
X6.001Y-3.5453
X6.001Y-3.7224
X6.026Y-1.5866
X6.026Y-2.7431
X6.8313Y-1.5856
X6.8313Y-2.7431
X6.8504Y-2.3878
X6.8504Y-2.565
X6.8504Y-3.5453
X6.8504Y-3.7224
X6.9313Y-1.5856
X6.9313Y-2.7431
X7.0313Y-1.5856
X7.0313Y-2.7431
X7.1063Y-2.3878
X7.1063Y-2.565
X7.1063Y-3.5453
X7.1063Y-3.7224
X7.1313Y-1.5856
X7.1313Y-2.7431
T6
G00X7.6457Y-3.4094
M15
G01X7.6457Y-3.4606
M16
G05
G00X8.0866Y-3.4094
M15
G01X8.0866Y-3.4606
M16
G05
T0
M30
