%TF.GenerationSoftware,KiCad,Pcbnew,6.0.9-8da3e8f707~117~ubuntu22.04.1*%
%TF.CreationDate,2022-12-27T22:22:47-06:00*%
%TF.ProjectId,macropad2,6d616372-6f70-4616-9432-2e6b69636164,rev?*%
%TF.SameCoordinates,Original*%
%TF.FileFunction,Legend,Bot*%
%TF.FilePolarity,Positive*%
%FSLAX46Y46*%
G04 Gerber Fmt 4.6, Leading zero omitted, Abs format (unit mm)*
G04 Created by KiCad (PCBNEW 6.0.9-8da3e8f707~117~ubuntu22.04.1) date 2022-12-27 22:22:47*
%MOMM*%
%LPD*%
G01*
G04 APERTURE LIST*
%ADD10C,0.150000*%
%ADD11C,0.120000*%
G04 APERTURE END LIST*
D10*
%TO.C,U3*%
X83847380Y-91248095D02*
X84656904Y-91248095D01*
X84752142Y-91295714D01*
X84799761Y-91343333D01*
X84847380Y-91438571D01*
X84847380Y-91629047D01*
X84799761Y-91724285D01*
X84752142Y-91771904D01*
X84656904Y-91819523D01*
X83847380Y-91819523D01*
X83847380Y-92200476D02*
X83847380Y-92819523D01*
X84228333Y-92486190D01*
X84228333Y-92629047D01*
X84275952Y-92724285D01*
X84323571Y-92771904D01*
X84418809Y-92819523D01*
X84656904Y-92819523D01*
X84752142Y-92771904D01*
X84799761Y-92724285D01*
X84847380Y-92629047D01*
X84847380Y-92343333D01*
X84799761Y-92248095D01*
X84752142Y-92200476D01*
%TO.C,U2*%
X95141904Y-40782380D02*
X95141904Y-41591904D01*
X95094285Y-41687142D01*
X95046666Y-41734761D01*
X94951428Y-41782380D01*
X94760952Y-41782380D01*
X94665714Y-41734761D01*
X94618095Y-41687142D01*
X94570476Y-41591904D01*
X94570476Y-40782380D01*
X94141904Y-40877619D02*
X94094285Y-40830000D01*
X93999047Y-40782380D01*
X93760952Y-40782380D01*
X93665714Y-40830000D01*
X93618095Y-40877619D01*
X93570476Y-40972857D01*
X93570476Y-41068095D01*
X93618095Y-41210952D01*
X94189523Y-41782380D01*
X93570476Y-41782380D01*
%TO.C,U1*%
X83847380Y-79448095D02*
X84656904Y-79448095D01*
X84752142Y-79495714D01*
X84799761Y-79543333D01*
X84847380Y-79638571D01*
X84847380Y-79829047D01*
X84799761Y-79924285D01*
X84752142Y-79971904D01*
X84656904Y-80019523D01*
X83847380Y-80019523D01*
X84847380Y-81019523D02*
X84847380Y-80448095D01*
X84847380Y-80733809D02*
X83847380Y-80733809D01*
X83990238Y-80638571D01*
X84085476Y-80543333D01*
X84133095Y-80448095D01*
D11*
%TO.C,U3*%
X85395000Y-94660000D02*
X85395000Y-93010000D01*
X85395000Y-89360000D02*
X105835000Y-89360000D01*
X105835000Y-94660000D02*
X85395000Y-94660000D01*
X105835000Y-89360000D02*
X105835000Y-94660000D01*
X85395000Y-91010000D02*
X85395000Y-89360000D01*
X85395000Y-93010000D02*
G75*
G03*
X85395000Y-91010000I0J1000000D01*
G01*
%TO.C,U1*%
X85395000Y-81210000D02*
G75*
G03*
X85395000Y-79210000I0J1000000D01*
G01*
X85395000Y-79210000D02*
X85395000Y-77560000D01*
X105835000Y-77560000D02*
X105835000Y-82860000D01*
X105835000Y-82860000D02*
X85395000Y-82860000D01*
X85395000Y-77560000D02*
X105835000Y-77560000D01*
X85395000Y-82860000D02*
X85395000Y-81210000D01*
%TD*%
M02*
