%TF.GenerationSoftware,KiCad,Pcbnew,6.0.9-8da3e8f707~117~ubuntu22.04.1*%
%TF.CreationDate,2022-12-27T22:22:46-06:00*%
%TF.ProjectId,macropad2,6d616372-6f70-4616-9432-2e6b69636164,rev?*%
%TF.SameCoordinates,Original*%
%TF.FileFunction,Copper,L1,Top*%
%TF.FilePolarity,Positive*%
%FSLAX46Y46*%
G04 Gerber Fmt 4.6, Leading zero omitted, Abs format (unit mm)*
G04 Created by KiCad (PCBNEW 6.0.9-8da3e8f707~117~ubuntu22.04.1) date 2022-12-27 22:22:46*
%MOMM*%
%LPD*%
G01*
G04 APERTURE LIST*
%TA.AperFunction,ComponentPad*%
%ADD10C,2.100000*%
%TD*%
%TA.AperFunction,WasherPad*%
%ADD11C,3.500000*%
%TD*%
%TA.AperFunction,ComponentPad*%
%ADD12C,2.000000*%
%TD*%
%TA.AperFunction,ComponentPad*%
%ADD13R,1.600000X1.600000*%
%TD*%
%TA.AperFunction,ComponentPad*%
%ADD14O,1.600000X1.600000*%
%TD*%
%TA.AperFunction,ComponentPad*%
%ADD15C,1.879600*%
%TD*%
%TA.AperFunction,ComponentPad*%
%ADD16R,2.000000X2.000000*%
%TD*%
%TA.AperFunction,ComponentPad*%
%ADD17R,2.000000X3.200000*%
%TD*%
%TA.AperFunction,ViaPad*%
%ADD18C,0.800000*%
%TD*%
%TA.AperFunction,Conductor*%
%ADD19C,0.250000*%
%TD*%
G04 APERTURE END LIST*
D10*
%TO.P,OLED5,4,SDA*%
%TO.N,OLED_SDA_5*%
X153060000Y-69675000D03*
%TO.P,OLED5,3,SCL*%
%TO.N,SCL*%
X150520000Y-69675000D03*
%TO.P,OLED5,2,VCC*%
%TO.N,3v3*%
X147980000Y-69675000D03*
%TO.P,OLED5,1,GND*%
%TO.N,GND*%
X145440000Y-69675000D03*
D11*
%TO.P,OLED5,*%
%TO.N,*%
X137600000Y-70175000D03*
X160900000Y-93975000D03*
X137600000Y-93975000D03*
X160900000Y-70175000D03*
%TD*%
D12*
%TO.P,SW5,2,B*%
%TO.N,GND*%
X152425000Y-94550000D03*
X145925000Y-94550000D03*
%TO.P,SW5,1,A*%
%TO.N,SW_5*%
X145925000Y-90050000D03*
X152425000Y-90050000D03*
%TD*%
D10*
%TO.P,OLED4,4,SDA*%
%TO.N,OLED_SDA_4*%
X125085000Y-69600000D03*
%TO.P,OLED4,3,SCL*%
%TO.N,SCL*%
X122545000Y-69600000D03*
%TO.P,OLED4,2,VCC*%
%TO.N,3v3*%
X120005000Y-69600000D03*
%TO.P,OLED4,1,GND*%
%TO.N,GND*%
X117465000Y-69600000D03*
D11*
%TO.P,OLED4,*%
%TO.N,*%
X109625000Y-70100000D03*
X132925000Y-93900000D03*
X109625000Y-93900000D03*
X132925000Y-70100000D03*
%TD*%
D12*
%TO.P,SW4,2,B*%
%TO.N,GND*%
X124450000Y-94475000D03*
X117950000Y-94475000D03*
%TO.P,SW4,1,A*%
%TO.N,SW_4*%
X117950000Y-89975000D03*
X124450000Y-89975000D03*
%TD*%
D13*
%TO.P,U3,1,A4*%
%TO.N,SW_5*%
X86725000Y-88200000D03*
D14*
%TO.P,U3,2,A6*%
%TO.N,unconnected-(U3-Pad2)*%
X89265000Y-88200000D03*
%TO.P,U3,3,A*%
%TO.N,SWITCH_SIG*%
X91805000Y-88200000D03*
%TO.P,U3,4,A7*%
%TO.N,unconnected-(U3-Pad4)*%
X94345000Y-88200000D03*
%TO.P,U3,5,A5*%
%TO.N,SW_6*%
X96885000Y-88200000D03*
%TO.P,U3,6,~{E}*%
%TO.N,GND*%
X99425000Y-88200000D03*
%TO.P,U3,7,VEE*%
%TO.N,unconnected-(U3-Pad7)*%
X101965000Y-88200000D03*
%TO.P,U3,8,GND*%
%TO.N,GND*%
X104505000Y-88200000D03*
%TO.P,U3,9,S2*%
%TO.N,ADDR2*%
X104505000Y-95820000D03*
%TO.P,U3,10,S1*%
%TO.N,ADDR1*%
X101965000Y-95820000D03*
%TO.P,U3,11,S0*%
%TO.N,ADDR0*%
X99425000Y-95820000D03*
%TO.P,U3,12,A3*%
%TO.N,SW_4*%
X96885000Y-95820000D03*
%TO.P,U3,13,A0*%
%TO.N,SW_3*%
X94345000Y-95820000D03*
%TO.P,U3,14,A1*%
%TO.N,SW_2*%
X91805000Y-95820000D03*
%TO.P,U3,15,A2*%
%TO.N,SW_1*%
X89265000Y-95820000D03*
%TO.P,U3,16,VCC*%
%TO.N,3v3*%
X86725000Y-95820000D03*
%TD*%
D15*
%TO.P,U2,1,TX*%
%TO.N,unconnected-(U2-Pad1)*%
X102000000Y-42600000D03*
%TO.P,U2,2,RX*%
%TO.N,unconnected-(U2-Pad2)*%
X102000000Y-45140000D03*
%TO.P,U2,3,GND*%
%TO.N,GND*%
X102000000Y-47680000D03*
%TO.P,U2,4,GND*%
X102000000Y-50220000D03*
%TO.P,U2,5,GPIO2*%
%TO.N,unconnected-(U2-Pad5)*%
X102000000Y-52760000D03*
%TO.P,U2,6,GPIO3*%
%TO.N,ROTARY_A*%
X102000000Y-55300000D03*
%TO.P,U2,7,GPIO4*%
%TO.N,ROTARY_B*%
X102000000Y-57840000D03*
%TO.P,U2,8,GPIO5*%
%TO.N,ROTARY_SW*%
X102000000Y-60380000D03*
%TO.P,U2,9,GPIO6*%
%TO.N,SWITCH_SIG*%
X102000000Y-62920000D03*
%TO.P,U2,10,GPIO7*%
%TO.N,ADDR2*%
X102000000Y-65460000D03*
%TO.P,U2,11,GPIO8*%
%TO.N,ADDR1*%
X102000000Y-68000000D03*
%TO.P,U2,12,GPIO9*%
%TO.N,ADDR0*%
X102000000Y-70540000D03*
%TO.P,U2,13,GPIO21*%
%TO.N,SCL*%
X86760000Y-70540000D03*
%TO.P,U2,14,GPIO23*%
%TO.N,unconnected-(U2-Pad14)*%
X86760000Y-68000000D03*
%TO.P,U2,15,GPIO20*%
%TO.N,OLED_SDA*%
X86760000Y-65460000D03*
%TO.P,U2,16,GPIO22*%
%TO.N,unconnected-(U2-Pad16)*%
X86760000Y-62920000D03*
%TO.P,U2,17,GPIO26*%
%TO.N,unconnected-(U2-Pad17)*%
X86760000Y-60380000D03*
%TO.P,U2,18,GPIO27*%
%TO.N,unconnected-(U2-Pad18)*%
X86760000Y-57840000D03*
%TO.P,U2,19,GPIO28*%
%TO.N,unconnected-(U2-Pad19)*%
X86760000Y-55300000D03*
%TO.P,U2,20,GPIO29*%
%TO.N,unconnected-(U2-Pad20)*%
X86760000Y-52760000D03*
%TO.P,U2,21,VCC*%
%TO.N,3v3*%
X86760000Y-50220000D03*
%TO.P,U2,22,GND*%
%TO.N,GND*%
X86760000Y-47680000D03*
%TO.P,U2,23,RST*%
%TO.N,unconnected-(U2-Pad23)*%
X86760000Y-45140000D03*
%TO.P,U2,24,RAW*%
%TO.N,unconnected-(U2-Pad24)*%
X86760000Y-42600000D03*
%TD*%
D14*
%TO.P,U1,16,VCC*%
%TO.N,3v3*%
X86725000Y-84020000D03*
%TO.P,U1,15,A2*%
%TO.N,OLED_SDA_3*%
X89265000Y-84020000D03*
%TO.P,U1,14,A1*%
%TO.N,OLED_SDA_4*%
X91805000Y-84020000D03*
%TO.P,U1,13,A0*%
%TO.N,OLED_SDA_5*%
X94345000Y-84020000D03*
%TO.P,U1,12,A3*%
%TO.N,OLED_SDA_6*%
X96885000Y-84020000D03*
%TO.P,U1,11,S0*%
%TO.N,ADDR0*%
X99425000Y-84020000D03*
%TO.P,U1,10,S1*%
%TO.N,ADDR1*%
X101965000Y-84020000D03*
%TO.P,U1,9,S2*%
%TO.N,ADDR2*%
X104505000Y-84020000D03*
%TO.P,U1,8,GND*%
%TO.N,GND*%
X104505000Y-76400000D03*
%TO.P,U1,7,VEE*%
%TO.N,unconnected-(U1-Pad7)*%
X101965000Y-76400000D03*
%TO.P,U1,6,~{E}*%
%TO.N,GND*%
X99425000Y-76400000D03*
%TO.P,U1,5,A5*%
%TO.N,OLED_SDA_2*%
X96885000Y-76400000D03*
%TO.P,U1,4,A7*%
%TO.N,unconnected-(U1-Pad4)*%
X94345000Y-76400000D03*
%TO.P,U1,3,A*%
%TO.N,OLED_SDA*%
X91805000Y-76400000D03*
%TO.P,U1,2,A6*%
%TO.N,unconnected-(U1-Pad2)*%
X89265000Y-76400000D03*
D13*
%TO.P,U1,1,A4*%
%TO.N,OLED_SDA_1*%
X86725000Y-76400000D03*
%TD*%
D16*
%TO.P,SW7,A,A*%
%TO.N,ROTARY_A*%
X202300000Y-79750000D03*
D12*
%TO.P,SW7,B,B*%
%TO.N,ROTARY_B*%
X197300000Y-79750000D03*
%TO.P,SW7,C,C*%
%TO.N,GND*%
X199800000Y-79750000D03*
D17*
%TO.P,SW7,MP*%
%TO.N,N/C*%
X194200000Y-87250000D03*
X205400000Y-87250000D03*
D12*
%TO.P,SW7,S1,S1*%
%TO.N,GND*%
X197300000Y-94250000D03*
%TO.P,SW7,S2,S2*%
%TO.N,ROTARY_SW*%
X202300000Y-94250000D03*
%TD*%
%TO.P,SW6,1,A*%
%TO.N,SW_6*%
X180500000Y-90050000D03*
X174000000Y-90050000D03*
%TO.P,SW6,2,B*%
%TO.N,GND*%
X174000000Y-94550000D03*
X180500000Y-94550000D03*
%TD*%
%TO.P,SW3,1,A*%
%TO.N,SW_3*%
X180500000Y-60650000D03*
X174000000Y-60650000D03*
%TO.P,SW3,2,B*%
%TO.N,GND*%
X174000000Y-65150000D03*
X180500000Y-65150000D03*
%TD*%
%TO.P,SW2,1,A*%
%TO.N,SW_2*%
X152425000Y-60675000D03*
X145925000Y-60675000D03*
%TO.P,SW2,2,B*%
%TO.N,GND*%
X145925000Y-65175000D03*
X152425000Y-65175000D03*
%TD*%
%TO.P,SW1,1,A*%
%TO.N,SW_1*%
X124450000Y-60650000D03*
X117950000Y-60650000D03*
%TO.P,SW1,2,B*%
%TO.N,GND*%
X117950000Y-65150000D03*
X124450000Y-65150000D03*
%TD*%
D10*
%TO.P,OLED6,4,SDA*%
%TO.N,OLED_SDA_6*%
X181135000Y-69675000D03*
%TO.P,OLED6,3,SCL*%
%TO.N,SCL*%
X178595000Y-69675000D03*
%TO.P,OLED6,2,VCC*%
%TO.N,3v3*%
X176055000Y-69675000D03*
%TO.P,OLED6,1,GND*%
%TO.N,GND*%
X173515000Y-69675000D03*
D11*
%TO.P,OLED6,*%
%TO.N,*%
X165675000Y-70175000D03*
X188975000Y-93975000D03*
X165675000Y-93975000D03*
X188975000Y-70175000D03*
%TD*%
D10*
%TO.P,OLED3,4,SDA*%
%TO.N,OLED_SDA_3*%
X181135000Y-40275000D03*
%TO.P,OLED3,3,SCL*%
%TO.N,SCL*%
X178595000Y-40275000D03*
%TO.P,OLED3,2,VCC*%
%TO.N,3v3*%
X176055000Y-40275000D03*
%TO.P,OLED3,1,GND*%
%TO.N,GND*%
X173515000Y-40275000D03*
D11*
%TO.P,OLED3,*%
%TO.N,*%
X165675000Y-40775000D03*
X188975000Y-64575000D03*
X165675000Y-64575000D03*
X188975000Y-40775000D03*
%TD*%
%TO.P,OLED2,*%
%TO.N,*%
X160900000Y-40800000D03*
X137600000Y-64600000D03*
X160900000Y-64600000D03*
X137600000Y-40800000D03*
D10*
%TO.P,OLED2,1,GND*%
%TO.N,GND*%
X145440000Y-40300000D03*
%TO.P,OLED2,2,VCC*%
%TO.N,3v3*%
X147980000Y-40300000D03*
%TO.P,OLED2,3,SCL*%
%TO.N,SCL*%
X150520000Y-40300000D03*
%TO.P,OLED2,4,SDA*%
%TO.N,OLED_SDA_2*%
X153060000Y-40300000D03*
%TD*%
D11*
%TO.P,OLED1,*%
%TO.N,*%
X132925000Y-40775000D03*
X109625000Y-64575000D03*
X132925000Y-64575000D03*
X109625000Y-40775000D03*
D10*
%TO.P,OLED1,1,GND*%
%TO.N,GND*%
X117465000Y-40275000D03*
%TO.P,OLED1,2,VCC*%
%TO.N,3v3*%
X120005000Y-40275000D03*
%TO.P,OLED1,3,SCL*%
%TO.N,SCL*%
X122545000Y-40275000D03*
%TO.P,OLED1,4,SDA*%
%TO.N,OLED_SDA_1*%
X125085000Y-40275000D03*
%TD*%
D18*
%TO.N,SCL*%
X115200000Y-47000000D03*
%TO.N,GND*%
X99400000Y-92200000D03*
X104400000Y-92200000D03*
%TO.N,SW_4*%
X121600000Y-93800000D03*
%TO.N,SW_3*%
X193800000Y-60800000D03*
%TO.N,SW_2*%
X193800000Y-59600000D03*
%TO.N,SW_1*%
X193800000Y-58400000D03*
%TD*%
D19*
%TO.N,GND*%
X173515000Y-40275000D02*
X175790000Y-38000000D01*
X175790000Y-38000000D02*
X194400000Y-38000000D01*
X194400000Y-38000000D02*
X199800000Y-43400000D01*
X199800000Y-43400000D02*
X199800000Y-79750000D01*
X173515000Y-40275000D02*
X171840000Y-38600000D01*
X171840000Y-38600000D02*
X144600000Y-38600000D01*
%TO.N,3v3*%
X120005000Y-69600000D02*
X104429800Y-54024800D01*
X104429800Y-54024800D02*
X104354800Y-54024800D01*
X124730000Y-74400000D02*
X124730000Y-74325000D01*
X124730000Y-74325000D02*
X120005000Y-69600000D01*
%TO.N,GND*%
X107200000Y-91200000D02*
X114600000Y-91200000D01*
X114600000Y-91200000D02*
X115500000Y-92100000D01*
X104400000Y-92200000D02*
X104500000Y-92100000D01*
X104500000Y-92100000D02*
X106300000Y-92100000D01*
X106300000Y-92100000D02*
X107200000Y-91200000D01*
X115500000Y-92100000D02*
X115500000Y-71640000D01*
X115500000Y-71640000D02*
X117465000Y-69675000D01*
X115500000Y-92100000D02*
X117950000Y-94550000D01*
%TO.N,OLED_SDA*%
X91805000Y-76400000D02*
X91805000Y-70505000D01*
X91805000Y-70505000D02*
X86760000Y-65460000D01*
%TO.N,GND*%
X119140000Y-38600000D02*
X144600000Y-38600000D01*
X117465000Y-40275000D02*
X119140000Y-38600000D01*
X144600000Y-38600000D02*
X145440000Y-39440000D01*
X145440000Y-39440000D02*
X145440000Y-40300000D01*
X117465000Y-40275000D02*
X115525000Y-40275000D01*
X115525000Y-40275000D02*
X108120000Y-47680000D01*
X108120000Y-47680000D02*
X102000000Y-47680000D01*
%TO.N,SCL*%
X115200000Y-47000000D02*
X122545000Y-54345000D01*
X122545000Y-54345000D02*
X122545000Y-69675000D01*
%TO.N,3v3*%
X84200000Y-81000000D02*
X84200000Y-52780000D01*
X84200000Y-52780000D02*
X86760000Y-50220000D01*
X84200000Y-91200000D02*
X84200000Y-81000000D01*
X86725000Y-84020000D02*
X84200000Y-81495000D01*
X84200000Y-81495000D02*
X84200000Y-81000000D01*
X84400000Y-91400000D02*
X84200000Y-91200000D01*
X86725000Y-95820000D02*
X86725000Y-93725000D01*
X86725000Y-93725000D02*
X84400000Y-91400000D01*
%TO.N,ADDR2*%
X102000000Y-65460000D02*
X105630000Y-69090000D01*
X105630000Y-69090000D02*
X105630000Y-82895000D01*
X105630000Y-82895000D02*
X104505000Y-84020000D01*
%TO.N,ADDR1*%
X102000000Y-68000000D02*
X103264800Y-69264800D01*
X103264800Y-69264800D02*
X103264800Y-82720200D01*
X103264800Y-82720200D02*
X101965000Y-84020000D01*
%TO.N,ADDR0*%
X102000000Y-70540000D02*
X100550000Y-71990000D01*
X100550000Y-71990000D02*
X100550000Y-82895000D01*
X100550000Y-82895000D02*
X99425000Y-84020000D01*
%TO.N,3v3*%
X114979600Y-43400000D02*
X118400000Y-43400000D01*
X118400000Y-43400000D02*
X146600000Y-43400000D01*
X120005000Y-40275000D02*
X120005000Y-41795000D01*
X120005000Y-41795000D02*
X118400000Y-43400000D01*
X172930000Y-43400000D02*
X146600000Y-43400000D01*
X146600000Y-43400000D02*
X146400000Y-43400000D01*
X147980000Y-40300000D02*
X147980000Y-41820000D01*
X147980000Y-41820000D02*
X146400000Y-43400000D01*
X176055000Y-40275000D02*
X172930000Y-43400000D01*
X114979600Y-43400000D02*
X104354800Y-54024800D01*
X143255000Y-74400000D02*
X171330000Y-74400000D01*
X171330000Y-74400000D02*
X176055000Y-69675000D01*
X124730000Y-74400000D02*
X143255000Y-74400000D01*
X143255000Y-74400000D02*
X147980000Y-69675000D01*
X104354800Y-54024800D02*
X90564800Y-54024800D01*
X90564800Y-54024800D02*
X86760000Y-50220000D01*
%TO.N,SWITCH_SIG*%
X91805000Y-88200000D02*
X95760000Y-84245000D01*
X95760000Y-84245000D02*
X95760000Y-69160000D01*
X95760000Y-69160000D02*
X102000000Y-62920000D01*
%TO.N,GND*%
X104505000Y-88200000D02*
X104505000Y-92095000D01*
X104505000Y-92095000D02*
X104400000Y-92200000D01*
X99425000Y-88200000D02*
X99425000Y-92175000D01*
X99425000Y-92175000D02*
X99400000Y-92200000D01*
%TO.N,ADDR2*%
X104505000Y-84020000D02*
X103380000Y-85145000D01*
X103380000Y-85145000D02*
X103380000Y-94695000D01*
X103380000Y-94695000D02*
X104505000Y-95820000D01*
%TO.N,ADDR1*%
X101965000Y-84020000D02*
X100840000Y-85145000D01*
X100840000Y-85145000D02*
X100840000Y-94695000D01*
X100840000Y-94695000D02*
X101965000Y-95820000D01*
%TO.N,ADDR0*%
X99425000Y-84020000D02*
X98300000Y-85145000D01*
X98300000Y-85145000D02*
X98300000Y-94695000D01*
X98300000Y-94695000D02*
X99425000Y-95820000D01*
%TO.N,GND*%
X102000000Y-47680000D02*
X86760000Y-47680000D01*
%TO.N,SW_4*%
X121600000Y-93800000D02*
X121600000Y-92900000D01*
X121600000Y-92900000D02*
X124450000Y-90050000D01*
%TO.N,SW_3*%
X193800000Y-60800000D02*
X193650000Y-60650000D01*
X193650000Y-60650000D02*
X180500000Y-60650000D01*
%TO.N,SW_1*%
X124450000Y-60650000D02*
X126500000Y-58600000D01*
X126500000Y-58600000D02*
X193600000Y-58600000D01*
X193600000Y-58600000D02*
X193800000Y-58400000D01*
%TO.N,SW_2*%
X152425000Y-60675000D02*
X153775000Y-59325000D01*
X153775000Y-59325000D02*
X193525000Y-59325000D01*
X193525000Y-59325000D02*
X193800000Y-59600000D01*
%TD*%
M02*
