%TF.GenerationSoftware,KiCad,Pcbnew,6.0.0-d3dd2cf0fa~116~ubuntu20.04.1*%
%TF.CreationDate,2022-12-05T21:16:53-06:00*%
%TF.ProjectId,esp32-led-driver-2,65737033-322d-46c6-9564-2d6472697665,rev?*%
%TF.SameCoordinates,Original*%
%TF.FileFunction,Soldermask,Bot*%
%TF.FilePolarity,Negative*%
%FSLAX46Y46*%
G04 Gerber Fmt 4.6, Leading zero omitted, Abs format (unit mm)*
G04 Created by KiCad (PCBNEW 6.0.0-d3dd2cf0fa~116~ubuntu20.04.1) date 2022-12-05 21:16:53*
%MOMM*%
%LPD*%
G01*
G04 APERTURE LIST*
%ADD10C,1.560000*%
%ADD11R,1.560000X1.560000*%
%ADD12R,1.600000X1.600000*%
%ADD13C,1.600000*%
G04 APERTURE END LIST*
D10*
%TO.C,ESP32 Dev Board*%
X77216000Y-119305000D03*
X77216000Y-116765000D03*
X77216000Y-114225000D03*
X77216000Y-111685000D03*
X77216000Y-109145000D03*
X77216000Y-106605000D03*
X77216000Y-104065000D03*
X77216000Y-101525000D03*
X77216000Y-98985000D03*
X77216000Y-96445000D03*
X77216000Y-93905000D03*
X77216000Y-91365000D03*
X77216000Y-88825000D03*
X77216000Y-86285000D03*
X77216000Y-83745000D03*
X77216000Y-81205000D03*
X77216000Y-78665000D03*
X77216000Y-76125000D03*
X77216000Y-73585000D03*
X51816000Y-119305000D03*
X51816000Y-116765000D03*
X51816000Y-114225000D03*
X51816000Y-111685000D03*
X51816000Y-109145000D03*
X51816000Y-106605000D03*
X51816000Y-104065000D03*
X51816000Y-101525000D03*
X51816000Y-98985000D03*
X51816000Y-96445000D03*
X51816000Y-93905000D03*
X51816000Y-91365000D03*
X51816000Y-88825000D03*
X51816000Y-86285000D03*
X51816000Y-83745000D03*
X51816000Y-81205000D03*
X51816000Y-78665000D03*
X51816000Y-76125000D03*
D11*
X51816000Y-73585000D03*
%TD*%
D12*
%TO.C,U2*%
X58550000Y-134210000D03*
D13*
X61090000Y-134210000D03*
X63630000Y-134210000D03*
X66170000Y-134210000D03*
X68710000Y-134210000D03*
X71250000Y-134210000D03*
X73790000Y-134210000D03*
X73790000Y-126590000D03*
X71250000Y-126590000D03*
X68710000Y-126590000D03*
X66170000Y-126590000D03*
X63630000Y-126590000D03*
X61090000Y-126590000D03*
X58550000Y-126590000D03*
%TD*%
M02*
